<?xml version="1.0" encoding="UTF-8"?>
<!DOCTYPE svg PUBLIC "-//W3C//DTD SVG 1.1//EN" "http://www.w3.org/Graphics/SVG/1.1/DTD/svg11.dtd">
<!-- Creator: CorelDRAW 2020 (64 Bit) -->
<svg xmlns="http://www.w3.org/2000/svg" xml:space="preserve" width="210mm" height="297mm" version="1.1" style="shape-rendering:geometricPrecision; text-rendering:geometricPrecision; image-rendering:optimizeQuality; fill-rule:evenodd; clip-rule:evenodd"
viewBox="0 0 21000 29700"
 xmlns:xlink="http://www.w3.org/1999/xlink"
 xmlns:xodm="http://www.corel.com/coreldraw/odm/2003">
 <defs>
  <style type="text/css">
   <![CDATA[
    .fil3 {fill:#05186B;fill-rule:nonzero}
    .fil2 {fill:#6DAC2A;fill-rule:nonzero}
    .fil0 {fill:#FBB526;fill-rule:nonzero}
    .fil1 {fill:white;fill-rule:nonzero}
   ]]>
  </style>
 </defs>
 <g id="Camada_x0020_1">
  <metadata id="CorelCorpID_0Corel-Layer"/>
  <g id="_2668546891984">
   <g>
    <g>
     <path class="fil0" d="M14140.48 11173.34c-113.64,-58.79 -1932.64,-177.59 -2160.63,-200.03 -225.52,-22.17 -450.79,-45.17 -677.78,-50.42 -116.75,-2.69 -234.22,-7.28 -350.98,-4.04 -40.2,1.11 -69.81,23.72 -82.83,57.02 -41.35,105.83 -31.82,225.15 -30.25,335.5 1.85,130.04 -13.13,260.68 -21.39,390.5 -9.28,146.02 -161.03,2748.46 -164.99,2790.99 -9.53,101.84 -21.56,203.46 -31.4,305.28 -8.91,92.17 -11.75,184.5 -18.96,276.75 -4.64,59.49 -11.02,121.56 6.62,179.99 50.07,165.78 251.81,172.85 407.65,194.38 227.12,31.35 454.58,61.62 683.1,83.46 468.99,44.85 942.36,39.6 1413.23,53.99 155.96,4.77 352.22,38.46 501.24,-19.65 155.72,-60.71 178.06,-230.01 201.82,-363.25 74.96,-420.41 105.34,-849 146.69,-1272.93 41.6,-426.41 81.31,-852.97 126.42,-1279.1 42.7,-403.38 174.08,-1415.52 52.44,-1478.44z"/>
     <path class="fil1" d="M10994.58 15003.82c84.31,-74.96 164.59,-153.4 240.47,-234.97 5.65,-6.09 11.64,-13.41 9.64,-21.06 -1.4,-5.3 -6.33,-9.22 -11.01,-12.79 -90.49,-69.08 -180.98,-138.16 -271.47,-207.24 100.83,-89 194.46,-192.8 299.86,-277.66 -79.8,-53.02 -159.61,-106.05 -239.43,-159.07 -22.06,-14.67 -46.54,-33.91 -43.46,-58.04 2.19,-17.14 17.93,-30.21 32.68,-41.64 72.1,-55.93 144.21,-111.86 216.3,-167.81 25.96,-20.13 54.03,-44.18 53.81,-74.56 -0.2,-26.52 -22.13,-48.59 -42.8,-67.99 -80.65,-75.69 -161.31,-151.39 -241.98,-227.08 92.13,-71.47 184.23,-142.94 276.34,-214.39 30.41,-23.59 63.1,-51.18 64.96,-86.74 2.1,-39.97 -35.34,-72.04 -69.79,-98.33 -84.07,-64.16 -168.13,-128.31 -252.2,-192.47 165.38,-124.61 308.74,-271.62 423.41,-434.17 -102.81,-59.28 -205.6,-118.55 -308.4,-177.82 -13.56,-7.82 -28.33,-17.19 -31.01,-31.22 -2.49,-13.01 6.42,-25.45 15.6,-35.9 87.07,-99.21 232.94,-153.34 304.11,-261.84 9.69,-14.79 18.03,-31.72 14.33,-48.46 -5.5,-24.94 -34.53,-39.45 -60.53,-50.68 -89.72,-38.68 -179.43,-77.36 -269.13,-116.05 109.43,-136.55 233.38,-264.18 369.69,-380.72 17.2,-14.7 37.05,-30.17 61.09,-30.47 35.2,-0.44 58.64,30.42 76.6,56.93 60.27,89.01 135.56,170.21 222.67,240.13 20.63,16.56 44.88,33.46 72.82,32.41 25.93,-0.97 47.4,-17.12 66.59,-32.42 76.61,-61.04 153.21,-122.1 229.81,-183.14 22.99,-18.32 52.97,-38.03 82.17,-28.68 14.07,4.52 24.34,15.01 33.95,25.1 74.35,78.01 148.69,156.04 223.04,234.05 15.59,16.38 33.71,33.95 57.92,36.09 22.47,1.99 43.07,-10.02 61.47,-21.48 94.03,-58.59 188.06,-117.17 282.1,-175.75 16.42,-10.25 35.51,-21 55.21,-17.29 18.12,3.42 30.24,17.93 40.63,31.37 53.97,69.79 107.94,139.59 161.9,209.39 12.09,15.64 27.19,32.87 48.71,34.15 15.53,0.93 29.76,-6.94 42.72,-14.49 129.58,-75.51 259.15,-151.01 388.73,-226.52 63.11,69.71 126.22,139.42 189.34,209.12 29.45,32.53 60.53,69.55 56.34,110.91 -4.1,40.39 -40.55,71.66 -74.69,99.04 -72.66,58.24 -145.32,116.48 -217.99,174.72 -36.71,29.44 -76.94,68.44 -64.11,110.55 6.19,20.31 23.81,36.11 39.84,51.74 67.29,65.58 117.21,144.78 144.68,229.63 4.57,14.09 8.52,29.13 3.99,43.24 -6.06,18.77 -25.49,31.43 -43.7,42.62 -88.39,54.39 -176.8,108.78 -265.19,163.16 71.67,99.49 143.32,198.97 214.98,298.45 13.48,18.72 27.55,40.45 20.75,61.77 -5.19,16.28 -21.28,27.77 -36.51,38.15 -96.88,66.05 -193.77,132.12 -290.67,198.19 125.72,122.51 238.66,255.05 337.02,395.44 -104.62,74.36 -209.25,148.73 -313.86,223.11 -22.26,15.82 -46.33,34.52 -48.48,59.55 -2.1,24.38 17.4,45.67 35.75,64.11 85.37,85.75 170.75,171.52 256.12,257.28 13.77,13.83 28.32,29.45 28.08,47.8 -0.3,24.33 -25.83,41.8 -48.85,55.41 -123.46,73.01 -246.94,146.01 -370.4,219.02 114.46,107.23 228.92,214.46 343.37,321.68 -70,93.93 -168.43,171.45 -282.5,222.47 -33.27,14.89 -70.39,27.84 -107.15,22.02 -40.53,-6.42 -71.69,-34.04 -100,-60.24 -80.62,-74.63 -161.22,-149.26 -241.84,-223.9 -118.48,63.6 -236.96,127.21 -355.46,190.8 -19.33,10.37 -39.37,20.99 -61.83,23.63 -96.58,11.34 -132.3,-113.06 -216.46,-156.08 -57.07,-29.16 -131.45,-15.8 -188.2,13.85 -56.74,29.64 -101.88,73.34 -153.55,109.42 -12.98,9.06 -27.06,17.92 -43.43,20.34 -18.77,2.79 -37.86,-3.36 -54.25,-11.84 -50.99,-26.38 -82.24,-73.66 -123.34,-111.01 -41.11,-37.34 -106,-65.99 -158.33,-41.69 -35.64,16.54 -52.99,51.83 -75.83,80.93 -55.52,70.81 -160.05,111.37 -256.04,93.84 -95.99,-17.54 -175.08,-95.57 -177.01,-181.44l11.29 43.53z"/>
     <path class="fil0" d="M12134.18 11878.05c21.45,-16.05 45.59,-32.97 73.49,-32.34 29.07,0.65 52.82,20.08 73.35,38.56 66.2,59.65 129.59,121.81 189.94,186.28 111.41,-64.65 222.84,-129.31 334.25,-193.95 22.38,-13 48.1,-26.57 74.06,-21.07 21.03,4.46 36.27,20.38 49.97,35.4 92.85,101.77 185.69,203.56 278.53,305.33 15.22,16.68 31.23,35.33 30.89,56.89 -0.35,21.92 -17.5,40.33 -33.84,56.58 -72.27,71.81 -147.4,141.29 -225.2,208.27 71.58,99.63 143.15,199.28 214.73,298.91 19.17,26.68 39.12,56.03 35.94,87.66 -3.93,38.99 -41.12,67.55 -75.44,91.63 -73.36,51.43 -146.72,102.87 -220.06,154.31 -20.37,14.27 -42.14,30.54 -47.06,53.33 -5.34,24.77 10.94,48.72 26.5,69.72 68.7,92.73 137.41,185.46 206.11,278.17 15.12,20.42 30.84,42.55 30.26,67.08 -0.74,30.48 -26.1,55.34 -49.93,77.04 -76.8,70.02 -153.62,140.02 -230.42,210.02 -23.66,21.57 -48.9,46.38 -49.15,76.66 -0.17,20.75 11.67,39.86 23.32,57.76 90.6,139.17 191.53,272.91 301.91,400.03 -91.07,84.24 -184.74,170.2 -302.52,221.1 -117.76,50.89 -266.53,60.4 -373.9,-6.56 -76.21,-47.55 -137.71,-132.97 -230.37,-128.84 -52.4,2.35 -96.39,34.27 -138.42,62.49 -74.53,50.03 -158.68,93.8 -251.3,101.38 -92.63,7.56 -194.73,-29.22 -234.84,-104.66 -36.56,-68.76 -14.12,-153.44 34.61,-215.81 48.73,-62.37 119.94,-107.07 189.64,-150.47 -104.72,-75.95 -209.43,-151.89 -314.13,-227.85 95.48,-120.48 190.95,-240.96 286.44,-361.46 -64.83,-54.08 -129.67,-108.17 -194.5,-162.27 -19.94,-16.63 -40.99,-35.06 -45.56,-59.17 -6.35,-33.59 21.19,-63.96 46.86,-89.05 69.63,-68.07 139.26,-136.13 208.9,-204.2 19.39,-18.95 39.93,-40.34 40.57,-66.09 0.73,-30.25 -25.96,-54.67 -50.72,-75.17 -117.27,-97.19 -234.57,-194.38 -351.84,-291.57 162.05,-105.61 308.49,-230.55 434.26,-370.51 -61.21,-39.46 -122.41,-78.92 -183.61,-118.39 144.36,-100.46 277.72,-210.09 418.28,-315.17z"/>
    </g>
    <g>
     <path class="fil2" d="M13570.83 15787.33c-91.75,-41.87 -201.9,-40.6 -302.46,-38.98 -118.28,1.88 -235.72,-5.39 -353.96,-7.76 -292.17,-5.83 -582.96,-24.22 -874.73,-37.57 -277.51,-12.7 -556.82,-11.03 -833.83,-30.75 -170.34,-12.11 -341.67,-39.9 -511.92,-10.56 -89.62,15.43 -171.98,64.53 -201.58,143.97 -24.57,65.87 -19.66,147.07 -16.38,219.81 9.39,207.15 56.38,411.42 62.8,618.77 3.9,126.44 -5.6,252.97 -1.63,379.37 1.56,50.17 7.87,99.05 15.5,147.64 -0.27,12.67 -0.81,25.28 -1.02,37.95 -4.17,251.94 8.62,503.61 8.49,755.52 -0.07,128.31 -3.79,256.61 -2.54,384.92 0.98,101.52 -7.54,215.39 35.39,311.61 70,156.92 250.93,167.46 417.59,168.38 126.75,0.71 253.41,3.01 380.16,0.08 140.71,-3.24 281.06,-17.72 421.63,-20 143.25,-2.32 1132.25,-49.18 1270.19,-55.04 88.54,-3.75 179.96,2.78 266.89,-15.61 77.36,-16.38 147.27,-55.15 185.56,-118.11 51.66,-84.94 37.62,-195.83 39.93,-288.45 6.31,-254.53 132.45,-1267.86 146.75,-1522.75 7.02,-124.75 3.83,-249.14 5,-373.92 0.7,-74.31 11.57,-148.33 15.66,-222.52 8.19,-148.71 0.25,-347.66 -171.49,-426z"/>
     <path class="fil1" d="M10989.66 16040.94c23.33,-16.41 48.18,-32.78 77.69,-38.7 67.81,-13.63 131.66,31.2 176.14,76.58 44.48,45.4 89.43,98.46 157.66,110.43 92.75,16.28 173.81,-50.38 238.29,-109.07 54.02,-49.18 127.47,-101.14 203.45,-81.8 29.64,7.54 54,25.17 77.37,42.34 65.52,48.07 131.03,96.16 196.55,144.24 16.66,12.23 34.79,25.03 56.72,27.09 26.11,2.43 50.21,-10.87 71.75,-23.55 96.36,-56.84 192.73,-113.67 289.1,-170.5 22.35,-13.18 46.82,-26.92 74.03,-26.2 26.56,0.72 49.53,15.01 70.59,28.7 70.1,45.59 140.18,91.17 210.28,136.76 19.73,12.84 41.99,26.35 66.81,24.72 18.02,-1.19 33.79,-10.25 48.61,-19.01 81.91,-48.43 163.82,-96.86 245.74,-145.28 125.28,62.5 231.69,151.86 306.5,257.39 15.16,21.4 29.51,46.48 21.09,70.39 -6.44,18.23 -24.75,31.38 -42.42,43.13 -51.29,34.11 -104.95,65.67 -160.59,94.47 -27.62,14.29 -56.62,28.61 -75.09,51.12 -49.49,60.33 -0.92,142.28 51.67,200.73 52.59,58.44 113.43,128.96 84.56,198.24 -14.29,34.31 -48.3,59.61 -80.95,83.29 -53.14,38.5 -106.27,77.03 -159.4,115.53 74.15,101.79 148.29,203.58 222.44,305.35 8.2,11.25 16.72,23.64 14.87,36.77 -2.03,14.52 -16.06,25.46 -29.15,35 -74.07,53.93 -148.14,107.86 -222.2,161.79 67.2,82.96 134.42,165.91 201.63,248.87 8.6,10.61 17.62,22.68 15.12,35.38 -2.63,13.3 -16.87,22.38 -30,30.03 -82.35,47.97 -164.7,95.95 -247.04,143.93 60.9,86.89 140.62,164.32 234.02,227.27 -68.12,56.43 -140.58,109.1 -216.81,157.55 -45.21,28.75 -97.42,57.34 -153.64,52.05 -119.66,-11.26 -179.68,-165.35 -299.21,-153.23 -101.69,10.32 -141.92,136.38 -243.4,148.08 -134.24,15.5 -205.39,-178.92 -339.29,-161.54 -110.46,14.35 -164,168.56 -271.85,143.82 -77.64,-17.83 -93.68,-118.87 -171.23,-136.92 -43.62,-10.14 -88.01,10.88 -126.42,31.1 -75.71,39.8 -151.4,79.62 -227.09,119.43 -28.38,14.91 -59.25,30.4 -92.56,28.44 -27.62,-1.63 -52.07,-15.05 -74.8,-28.4 -86.71,-50.95 -168.99,-107.31 -245.92,-168.47 -17.8,-14.14 -36.64,-31.22 -35.58,-51.86 0.9,-17.28 15.64,-31.5 29.57,-44.15 74.76,-67.86 149.5,-135.71 224.25,-203.56 11.55,-10.49 23.91,-22.86 22.37,-37.14 -1.29,-12 -12.1,-21.47 -22.28,-29.88 -90.18,-74.53 -180.37,-149.06 -270.56,-223.59 59.58,-59.92 116.88,-111.6 176.45,-171.53 25.29,-25.43 52.07,-54.54 49.34,-87.69 -3.99,-48.24 -65.17,-75.4 -116.77,-96.18 -51.61,-20.78 -109.7,-57.24 -99.55,-104.84 3.81,-17.92 17.16,-33.18 30.13,-47.7 50.84,-56.98 101.66,-113.97 152.48,-170.93 17.08,-19.15 35.02,-43.61 23.27,-65.44 -7.43,-13.83 -24.65,-21.6 -40.7,-28.4 -80.58,-34.1 -161.18,-68.21 -241.77,-102.31 99.08,-137.02 208.73,-268.58 327.99,-393.56 -69.28,-41.71 -138.57,-83.41 -207.87,-125.11 -46.07,-27.74 -94.59,-58.07 -114.54,-102.85 -19.95,-44.76 151.12,-219.13 210.15,-260.62z"/>
     <path class="fil2" d="M11889.29 18162.9c73.51,-60.35 147.02,-120.69 220.53,-181.04 103.76,63.1 207.52,126.2 311.29,189.3 9.92,6.04 20.82,12.33 32.83,11.76 12.55,-0.59 22.95,-8.5 32.27,-16.03 87.19,-70.37 173.13,-141.99 257.78,-214.83 14.16,-12.19 29.17,-25.95 31.1,-43.43 2.27,-20.44 -13.91,-38.36 -28.36,-54.36 -45.17,-50.04 -82.41,-105.75 -110.27,-165 -9.41,-19.96 -17.79,-42.51 -9.38,-62.85 7.65,-18.5 27.3,-30.49 45.47,-41.72 57.46,-35.56 111.22,-75.86 160.34,-120.24 12.99,-11.73 26.25,-24.77 29.27,-41.03 4.57,-24.51 -15.21,-46.8 -33.7,-65.39 -61.76,-62.1 -123.53,-124.2 -185.29,-186.3 85.63,-67.34 171.26,-134.68 256.88,-202.02 15.75,-12.38 32.54,-26.41 35.36,-44.97 4.71,-31.13 -30.65,-54.07 -61.44,-69.35 -64.44,-32.02 -128.91,-64.04 -193.36,-96.06 40.33,-55.63 80.66,-111.26 121.01,-166.89 9.8,-13.53 19.98,-28.12 19.65,-44.24 -0.51,-25.35 -25.96,-43.86 -49.06,-58.62 -97.15,-62.02 -215.89,-127.17 -328.23,-90.91 -116.79,37.71 -194.17,177.44 -316.14,156.54 -58.32,-9.99 -99,-55.25 -140.78,-92.87 -41.79,-37.63 -101.61,-72.05 -157.14,-53.3 -28.8,9.75 -49.58,31.95 -69.45,52.95 -104.31,110.23 -220.69,211.36 -346.96,301.48 63.87,71.26 127.73,142.52 191.6,213.78 13.38,14.93 27.38,31.32 27.98,50.41 0.84,27.26 -25.29,48.37 -49.14,65.41 -49.43,35.27 -98.86,70.55 -148.28,105.83 -12.3,8.78 -25.24,18.39 -29.8,31.82 -8.86,26.15 17.22,50.41 40.4,68.25 61.94,47.71 121.11,98.3 177.16,151.48 12.15,11.54 24.8,24.43 26.46,40.18 2.1,19.9 -13.75,37.34 -28.62,52.29 -56.3,56.57 -112.59,113.13 -168.89,169.7 -12.14,12.21 -24.97,25.91 -25.24,42.21 -0.29,17.15 13.32,31.65 26.16,44.41 133.38,132.48 287.69,243.33 435.99,363.65z"/>
    </g>
    <path class="fil2" d="M10483.44 11013.47c-172.74,-146.26 -455.93,-145.39 -676.62,-146.51 -665.27,-3.38 -1337.08,46.45 -1994.52,138.84 -82.49,11.6 -164.48,25.84 -246.32,40.64 -36.88,6.67 -73.71,13.47 -110.57,20.21 -24.62,4.49 -49.21,9.28 -73.97,13.15 -0.51,0.08 -49.25,6.6 -47.22,6.64 -126.71,14.36 -258.61,18.8 -375.4,70.54 -232.67,103.04 -196.18,385.88 -168.41,579.96 8.62,60.29 18.53,120.4 28.22,180.55 1.12,6.98 5.66,46.15 1.04,6.07 1.06,9.12 2.29,18.21 3.3,27.33 5.31,47.69 9.04,95.6 13.06,143.41 15.5,183.63 25.96,367.64 45.51,550.97 17.99,168.69 39.76,337.41 64.12,505.42 24.95,172.17 39.16,347.18 89.8,515.2 23.47,77.9 114.19,124 198.99,103.59 183.37,-44.12 419.8,-21.85 621.7,-26.74 116.75,-2.82 232.91,-15.26 349.68,-19.16 133.49,-4.48 267.1,-4.46 400.63,-7.96 258.47,-6.74 514.18,-58.73 772.71,-57.52 63.98,0.31 80.62,6.19 146.45,12.77 43.96,4.41 87.72,3.44 130.31,-9.43 115.65,-34.94 179.73,-135.29 208.08,-238.09 22.78,-82.61 31.48,-167.81 53.83,-250.63 30.47,-112.89 54.57,-227.17 73.07,-342.21 38.55,-239.58 59.18,-481.95 58.75,-724.2 -0.18,-97.95 -2.65,-193.07 3.84,-290.82 6.86,-103.27 -11.9,-205.98 -101.84,-276.55 -91.5,-71.8 -208.15,-81.39 -322.75,-94.29 -118.63,-13.35 -237.65,-20.54 -357.14,-22.97 -291.91,-5.94 -573.44,13.24 -861.25,58.3 -137.95,21.6 -276.1,39.66 -412.78,67.66 -131.15,26.87 -261.3,59.27 -395.63,68.93 -85.43,6.14 -146.96,58.95 -151.84,139.21 -13.57,223.71 19.9,445.54 51.06,666.84 29.4,208.69 41.73,422.62 114.42,623.67 24.01,66.44 83.89,108.84 160.16,111.82 492,19.22 979.24,-73.16 1469.44,-92.45 80.25,-3.16 166.36,-64.33 158.85,-145.64 -25.36,-274.26 108.41,-568.52 0.39,-836.49 -22.7,-56.31 -76.66,-105.66 -147.3,-102.83 -204.82,8.25 -410.32,15.7 -614.89,28.12 -98.79,6 -190.98,24.46 -284.55,53.1 -91.5,28.01 -182.81,56.68 -279.49,64.57 -46.35,3.79 -65.44,72.09 -11.91,80.72 184.36,29.74 366.66,-6.53 551.47,-3.37 167.01,2.86 334.34,18.96 500.17,39.52 8.7,181.08 -34.07,360.97 -37.52,542.1 -394.01,27.94 -786.94,64.64 -1182.3,67.68 -44.58,-153.18 -63.03,-312.08 -87.29,-468.95 -26.41,-170.75 -47.73,-340.04 -54.27,-511.57 169.01,-27.85 336.16,-64.71 506.25,-86.97 238.54,-31.23 475.37,-67.82 716.97,-66.69 212.7,0.99 426.59,5.74 637.3,34.15 20.16,2.7 40.37,5.31 60.33,9.12 5.71,1.11 20.36,4.38 31.64,6.92 -4.67,81.66 -14.55,161.92 -14.39,244.01 0.39,216.82 -1.22,433.08 -24.63,649.05 -21.73,200.47 -81.71,394.13 -106.27,593.56 -5.43,44.08 -4.75,53.44 -14.94,96.61 -2.67,11.28 -6.31,22.31 -9.91,33.35 -12.35,-0.69 -24.69,-1.33 -37.05,-2.41 -49.51,-4.28 -99.05,-6.06 -148.77,-7.37 -244.79,-6.39 -489.39,25.2 -733.94,31.45 -133.49,3.41 -267.06,3.1 -400.52,7 -124.57,3.65 -248.5,16.68 -373.06,19.06 -185.88,3.52 -369.01,-2.71 -550.88,22.46 -30.98,-85.77 -55.46,-174.24 -65.9,-262.31 -15.97,-134.66 -26.67,-269.96 -38.52,-404.96 -25.52,-290.99 -26.14,-585.32 -63.68,-875.28 -13.97,-107.85 -26.23,-162.5 -36.06,-260.04 -4.55,-45.17 -7.74,-90.57 -7.31,-135.96 0.2,-20.43 1.48,-40.84 3.54,-61.19 0.78,3.52 7.74,-28.32 9.9,-39.27 6.9,-2.85 19.24,-7.96 20.97,-9.05 51.25,-16.84 106.51,-25.06 160,-32.53 127.88,-17.88 255.24,-37.92 383,-56.64 323.8,-47.4 653.19,-74.41 979.85,-99.79 330.15,-25.65 661.11,-41.27 992.49,-39.36 89.75,0.51 179.5,0.75 269.13,5.22 47.5,2.36 94.94,5.88 142.18,10.99 6.02,0.76 14.51,1.82 18.06,2.4 13.17,2.13 26.37,4.06 39.5,6.44 25.03,4.51 49.84,9.85 74.39,16.23 22.41,5.83 44.43,12.5 66.44,19.49 -35.44,-11.24 -0.95,4.88 14.87,10.3 3.32,5.17 6.6,10.38 10.03,15.47 0.62,1.2 0.87,1.67 1.41,2.67 2.15,5.6 4.21,11.24 5.96,16.95 14.62,59.48 16.11,58.3 18.32,118.7 2,55.18 -0.6,110.45 -4.62,165.5 -20.58,281.64 -36.22,562.09 -46.13,844.35 -5.59,159 -13.08,317.9 -16.6,476.96 -3.48,156.83 -8.39,315.33 -43.02,469.46 -10.01,44.58 60.31,78.63 84.95,32.83 146.77,-272.69 173.86,-566.46 215.35,-863.41 22.5,-161.13 52.5,-322.37 65.81,-484.38 6.05,-73.62 10.95,-147.28 16.07,-220.96 1.53,-22.19 3.4,-44.28 5.95,-66.4 1.07,-9.18 2.2,-18.36 3.44,-27.53 0.76,-3.64 4.32,-25.16 4.83,-28.3 34.89,-213.7 101.91,-521.49 -96,-689.05z"/>
    <g>
     <path class="fil0" d="M10507.37 14398.39c18.39,-99.91 -28.72,-215.59 -164.22,-240.27 -253.28,-46.16 -518.66,-41.37 -777.61,-55.67 -243.08,-13.43 -486.06,-28.68 -729.45,-37.6 -496.37,-18.21 -985.53,17.12 -1480,46.78 -108.22,6.47 -191.34,69.14 -195.3,162.22 -18.75,441.1 -40.25,881.7 -50.16,1323.09 -10.01,445.85 -21.02,891.49 -43.9,1337.02 -22.36,435.4 -13.97,871.57 -12.51,1307.21 0.5,146.37 -49.78,361.95 129.65,451.9 91.97,46.1 220.19,38.99 323.11,40.34 128.8,1.72 257.63,-1.33 386.43,-1.36 295.62,-0.06 591.46,22.93 886.66,34.75 147.02,5.9 294.08,11 441.18,15 153.58,4.16 306.07,-3.68 459.33,-11.85 94.3,-5.03 194.18,-66.84 185.98,-154.5 -11.55,-123.52 -29.42,-244.57 -29.55,-368.49 -0.11,-122.6 -2.8,-245.19 -5.1,-367.78 -4.71,-248.26 -5.21,-496.04 13.57,-743.95 35.51,-469.21 99.48,-940.07 62.15,-1410.64 -10.51,-132.55 -21.75,-263.56 -21.81,-396.55 -0.07,-136.72 1.32,-273.34 -16.86,-409.44 -11.55,-86.66 -72.62,-137.09 -177.34,-147.33 -119.81,-11.71 -239.34,-4.13 -359.34,1.21 -124.9,5.57 -246.81,-0.67 -371.26,-9.44 -200.43,-14.1 -399.34,-8.05 -599.62,-16.53 -90.15,-3.81 -183.43,4.7 -272.38,16.78 -34.63,4.7 -66.07,11.91 -98.51,23.14 -32.48,11.22 -41.15,19.55 -69.51,34.52 -0.77,0.6 -1.12,0.88 -1.96,1.54 -24.04,18.89 -15.78,8.8 -36.46,30.65 -53.74,56.81 -58.77,135.66 -65.8,204.85 -5.28,52.09 -7.56,104.48 -8.49,156.75 -1.78,100.1 16.83,198.71 21.67,298.46 5.39,111.77 1.8,224.14 1.46,335.98 -0.69,225.81 -2.53,451.61 -4.47,677.41 -1.9,221.47 -3.91,442.94 -5.03,664.41 -0.58,112.33 -0.92,224.67 -0.91,337 0.01,104.26 8.71,211.18 -0.59,315.19 -0.17,1.05 -0.29,1.74 -0.5,3.03 -2.47,14.98 -6.59,30.15 -7.54,45.23 -1.27,19.81 -1.22,40.12 5.18,59.58 14.56,44.28 47.78,78.15 91.07,105.29 96.77,60.67 213.1,74.22 331.33,80.18 111.16,5.61 221.63,5.58 332.62,15.41 145.29,12.87 290,29.91 436.51,24.27 73.84,-2.84 129.13,-39.43 152.78,-96.61 79.92,-193.21 59.65,-401.22 51.16,-601.67 -9.7,-228.72 9.91,-458.17 24.78,-686.46 13.92,-213.57 8.21,-423.05 3.81,-636.59 -4.13,-199.89 -10.49,-403.52 50.63,-598.48 32.39,-103.26 -59.34,-189.97 -180.68,-197.03 -156.62,-9.09 -320.96,18.98 -474.1,-9.92 -107.1,-20.2 -196.17,27.2 -233.76,110.26 -58.34,128.99 -46.68,272.35 -32.87,406.97 15.09,147.12 11.67,292.1 4.96,439.54 -7.25,159.46 -5.68,318.86 1.35,478.31 3.74,84.72 70.22,423.55 70.42,504.86 0.23,98.9 185.3,99.09 185.07,0 -0.18,-75 45.15,-399.03 44.15,-480.84 -1.9,-156.03 -0.41,-311.49 17.13,-466.94 16.05,-142.25 35.99,-283.85 32.08,-426.95 -1.78,-65.12 -5.2,-130.27 -1.97,-195.4 0.62,-12.66 1.86,-26.76 3.57,-41.1 57.98,2.22 116.14,1.18 174.47,-1.05 -9.91,140.77 -1.12,281.88 13.11,423.59 21.65,215.58 25.72,426.49 11.44,642.54 -15.03,227.51 -36.81,456.26 -31.05,684.25 4.06,160.47 26.87,326.4 -9.36,484.94 -177.58,-6.34 -353.78,-34.96 -531.72,-39.45 -76.17,-1.92 -144.89,-2.58 -211.14,-16.09 0.44,-3.34 1.12,-6.67 1.48,-10.01 10.34,-97.05 1.6,-197.43 1.9,-294.82 0.32,-100.26 0.94,-200.51 1.76,-300.78 1.66,-205.27 4.15,-410.53 6.71,-615.8 5.07,-408.6 22.1,-819.03 3.63,-1227.41 -3.33,-73.69 -4.29,-146.87 2.47,-220.42 2.13,-23.26 4.53,-46.53 7.36,-69.75 1.3,-10.59 2.78,-21.18 4.23,-31.77 -0.68,5.49 0.3,-0.19 1.67,-8.29 53.72,1.3 107.02,5.4 161.02,6.91 199.76,5.54 398.02,-14.03 598.32,-7.03 124.68,4.35 247.62,9.62 372.21,0.87 74.3,-5.22 148.51,-11.89 222.82,-14.84 12.51,186.86 3.55,374.73 25.77,561.26 27.78,233.3 32.05,466.98 23.4,701.21 -17.64,479.07 -70.4,954.48 -55.27,1434.31 4.24,134.47 10.08,268.91 13.6,403.39 1.76,67.2 8.22,136.24 1.99,203.29 -2.69,29.12 -7.5,58.35 -12.94,87.54 -452.75,-18.92 -906.44,-20.58 -1359.7,-33.2 -249.16,-6.93 -497.85,12.89 -746.88,7.89 0.61,-62.74 0.25,-125.54 0.36,-188.24 0.73,-419.83 -4.83,-840.11 16.62,-1259.68 21.74,-425.34 38.72,-850.45 50.32,-1276.05 11.54,-423.79 15.28,-850.05 50.61,-1273.36 189.08,-4.78 378.23,-10.67 567.3,-10.8 244.61,-0.16 488.36,13.39 731.98,30.61 243.49,17.21 486.39,39.38 729.45,60.24 123.81,10.62 247.69,20.87 371.7,29.74 53.89,3.86 107.79,7.45 161.74,10.68 4.33,15.89 8.34,31.82 11.58,47.92 15.44,76.52 33.9,152.74 46.71,229.6 23.34,139.98 18.68,282.35 16.42,423.23 -4.76,296 -4.38,591.98 -10.24,887.95 -11.95,602.06 -26.78,1204.11 -42.03,1806.12 -4.01,157.8 -28.68,314.97 -29.23,472.77 -0.43,124.43 30.22,261.9 -21.25,381.62 -14.17,33 50.32,56.03 68.66,24.04 54.22,-94.57 61.58,-206.14 64.54,-309.37 3.92,-137.07 25.18,-271.71 44.15,-407.74 41.37,-296.6 53.13,-596.94 79.28,-894.7 53.93,-614.3 99.74,-1229.12 163.11,-1842.79 16.79,-162.66 -10.3,-826.14 16.69,-972.81z"/>
     <path class="fil0" d="M7912.66 14825.41c3.38,-1.69 5.44,-2.93 8.34,-4.46 5.74,-4.51 9.44,-7.39 11.86,-9.24 -5.4,4.06 -15.15,11.17 -20.2,13.7z"/>
     <path class="fil0" d="M7932.86 14811.71c4.07,-3.08 5.12,-3.96 0,0z"/>
    </g>
   </g>
   <g>
    <path class="fil1" d="M7921.42 17018.31c0,0 -861.73,-718.11 -876.1,-2355.41 -14.35,-1637.29 1120.26,-3375.13 3260.23,-3518.74 2139.97,-143.63 3604.91,1536.75 3676.72,3360.76 71.82,1824 -1278.24,3274.59 -2412.85,3490.02 -1134.61,215.42 -2269.22,359.04 -3648,-976.63z"/>
    <g>
     <path class="fil3" d="M7980.68 16963.85c0,0 -842.05,-701.7 -856.08,-2301.59 -14.03,-1599.89 1094.66,-3298.01 3185.74,-3438.35 2091.07,-140.34 3522.54,1501.65 3592.72,3283.98 70.17,1782.33 -1249.04,3199.77 -2357.73,3410.28 -1108.68,210.5 -2217.37,350.85 -3564.65,-954.32z"/>
     <path class="fil1" d="M8299.47 14228.83c0,0 -92.42,89.51 -149.1,92.15 -56.68,2.64 -51.02,2.37 -81.47,-41.67 -30.46,-44.02 -68.56,-8.17 -87.41,-47.06 -18.84,-38.87 3.82,-39.94 -20.17,-67.23 -23.99,-27.28 -114.29,-136.69 -99.66,-188.5 14.64,-51.81 2.24,-73.96 40.87,-98.48 38.62,-24.52 31.38,-58.26 40.07,-115.47 8.7,-57.22 41.66,-81.47 85.15,-123.27 43.51,-41.78 252.98,-57.21 285.94,-81.47 32.95,-24.26 110.07,-442.54 79.88,-480.9 -30.2,-38.36 5.53,-125.24 19.64,-188.37 14.1,-63.16 -73.03,-104.54 -73.03,-104.54 0,0 -35.87,-38.11 76.18,-71.72 112.07,-33.62 229.25,-78.84 248.37,-34.27 19.11,44.55 33.35,106.37 69.21,144.48 35.85,38.09 163.34,-30.32 252.45,-68.56 89.11,-38.23 185.74,-37.05 153.96,-109.42 -31.76,-72.37 -84.11,-98.34 -86.2,-143.69 -2.13,-45.34 -90.84,-120.74 0.91,-102.3 91.75,18.47 128.93,84.9 189.17,36.66 60.25,-48.26 90.57,-129.2 185.88,-156.36 95.3,-27.16 187.32,-3.04 187.32,-3.04 0,0 -32.3,160.58 -29.14,228.59 3.17,68.03 2.51,175.99 66.72,212.77 64.19,36.78 163.86,-18.98 236.23,-50.75 72.36,-31.78 154.89,32.56 209.73,-9.77 54.84,-42.31 35.98,-81.2 103.74,-90.04 67.77,-8.82 155.7,49.57 256.4,16.48 100.72,-33.08 145.15,-177.18 188.38,-224.62 43.23,-47.46 93.98,-55.51 107.17,-16.35 13.17,39.14 2.24,170.31 55.1,207.62 52.86,37.3 97.15,12.53 100.32,80.54 3.16,68.03 -33.88,126.56 -4.48,147.92 29.4,21.34 41.26,32.16 94.39,75.13 53.13,42.98 84.11,98.34 84.11,98.34 0,0 265.89,-23.73 364.63,22.8 98.73,46.53 140.26,84.36 182.57,139.21 42.32,54.84 97.95,29.52 177.31,25.84 79.36,-3.69 184.56,59.58 286.85,60.5 102.3,0.92 156.35,-58.4 246.13,39.68 89.77,98.08 109.68,159.63 190.1,178.62 80.4,18.97 179.81,-42.45 245.32,22.67 65.51,65.12 66.04,76.45 89.9,223.04 23.86,146.59 54.59,196.29 -18.45,336.02 -73.03,139.75 -80.54,100.33 -160.03,223.32 -79.49,123 -142.76,228.2 -196.02,304.53 -53.26,76.32 -96.11,10.15 -76.59,185.35 19.51,175.19 14.51,311.76 7.13,397.32 -7.39,85.55 -109.16,340.24 -170.32,490.78 -61.17,150.55 76.47,178.24 -175.18,263.79 -251.66,85.56 -264.85,46.41 -404.18,104.02 -139.34,57.61 -192.99,3.29 -293.06,172.69 -100.04,169.4 -69.86,207.77 -122.98,409.06 -53.12,201.3 -87.66,191.55 -178.22,320.73 -90.57,129.19 -43.9,155.42 -147.65,245.46 -103.74,90.04 -58.92,76.59 -139.99,165.58 -81.07,88.98 -146.45,148.83 -144.2,74.88 2.24,-73.95 41.12,-92.8 11.19,-125.5 -29.92,-32.69 -60.64,-82.39 -175.85,-116.8 -115.22,-34.4 -352.9,-136.95 -311.76,-229.76 41.13,-92.82 413.26,-274.86 425.52,-377.69 12.26,-102.82 24.79,-199.98 -32.44,-208.67 -57.2,-8.71 -110.99,56.28 -92.27,-29.8 18.72,-86.09 43.89,-155.43 8.57,-182.19 -35.33,-26.75 -64.6,76.86 -101.78,10.43 -37.18,-66.45 -2.76,-181.66 -72.37,-212.51 -69.6,-30.85 -262.08,-16.21 -262.08,-16.21 0,0 -12.12,-16.48 -24.65,-163.6 -12.51,-147.12 -74.87,-144.21 -44.82,-230.83 30.05,-86.6 59.85,-178.88 59.85,-178.88 0,0 -92.55,-35.45 -107.57,-114.3 -15.03,-78.82 6.58,-102.56 -39.55,-117.45 -46.15,-14.9 -160.69,87.01 -198.4,9.23 -37.7,-77.77 -17.4,-129.85 -44.3,-219.49 -26.89,-89.64 12.78,-91.48 -85.15,-121.02 -97.95,-29.52 -185.88,-87.93 -272.49,-117.98 -86.61,-30.05 -148.17,-10.15 -202.08,-70.12 -53.93,-59.97 -89.79,-98.08 -99.15,-177.17 -9.35,-79.11 26.63,-160.31 -63.27,-139.08 -89.91,21.23 -196.96,162.54 -280.92,189.17 -83.98,26.63 -159.25,-3.96 -238.09,11.08 -78.83,15.03 -99.39,61.43 -113.63,-0.4 -14.22,-61.83 7.79,-199.18 7.79,-199.18z"/>
     <path class="fil1" d="M9613.51 15839.28c-81.04,-259 -355.09,-447.48 -624.71,-416.66 -96.55,11.03 -189,47.04 -273.54,94.98 -188.9,107.1 -347.57,288.37 -375.52,503.71 -12.63,97.3 1.71,196.64 29.86,290.63 122.66,409.45 678.86,475.36 994.87,247.68 220.17,-158.65 330.07,-461.34 249.04,-720.34zm-557.94 26.66l0 0c-33.68,59.16 -88.85,104.98 -152.16,129.38 -8.67,3.34 -19.59,6.43 -30.99,8.89 9.33,10.8 17.26,23.26 23.86,35.85 29.62,56.55 45.35,120.32 45.39,184.15 0,10.89 -1.33,23.48 -10.39,29.51 -10.64,7.07 -24.86,0.7 -35.51,-6.37 -56.71,-37.62 -98.67,-95.78 -118.7,-160.62 -2.38,-7.7 -4.4,-17.16 -6.04,-27.01 -4.86,5.23 -9.71,9.96 -14.18,13.92 -51.62,45.57 -118.71,73.78 -187.72,76.4 -12.96,0.49 -28.64,-1.51 -34.12,-13.26 -4.66,-10.02 0.83,-21.62 6.59,-31.05 33.79,-55.27 81.11,-102.19 136.67,-135.52 10.22,-6.15 21.27,-11.42 32.54,-15.73 -6.98,-8.48 -13.01,-17.09 -17.56,-24.63 -35.6,-58.94 -51.35,-129.99 -41.57,-198.37 1.84,-12.83 6.6,-27.9 19.15,-31.19 10.67,-2.8 21.12,4.7 29.36,12.04 48.33,43.14 86.04,98.1 108.89,158.71 3.83,10.17 6.78,20.86 9.04,31.65 9.39,-8.67 19.81,-16.49 30.6,-23.11 54.39,-33.41 116.94,-53.44 180.64,-57.85 10.85,-0.74 23.5,-0.27 30.13,8.36 7.79,10.13 2.4,24.74 -3.92,35.85z"/>
     <path class="fil1" d="M12620.36 16138.01c60.68,-13.93 116.32,-48.84 155.25,-97.4 -65.91,-18.94 -137.28,-18.36 -202.88,1.66 31.1,-18.66 64.3,-39.82 76.91,-73.82 -18.86,-14.38 -45.5,-9.92 -68.55,-4.33 -162.73,39.53 -305.8,157.61 -470.4,188.49 -56.36,10.57 -113.17,21.28 -166.35,42.78 -53.17,21.5 -103.12,54.81 -135.04,102.47 -56.59,84.49 -47.09,196.14 -25.56,295.52 13.23,61.07 -45.78,117.68 -50.01,180.02 -4.25,62.34 5.8,127.44 39.85,179.83 34.04,52.39 94.88,89.64 157.16,84.73 65.24,76.82 176.12,118.16 276.08,105.4 99.98,-12.76 191.58,-78.69 235.43,-169.43 44.15,7.59 89.71,-16.36 124.87,-44.15 70.82,-55.96 112.67,-146.76 109.25,-236.97 -1.91,-50.46 -17.05,-99.52 -35.34,-146.6 -14.69,-37.82 -31.91,-75.44 -58.82,-105.82 -26.91,-30.37 -64.93,-52.95 -105.5,-53.26 -36.23,-0.26 -85.81,-26.16 -116.67,-7.2 -36.11,22.17 -36.32,73.03 -47.98,113.76 -17.3,60.37 -81.15,111.25 -141.25,93.07 -51.28,-15.52 -78.62,-72.24 -86.25,-125.29 -4.27,-29.79 -4.19,-60.87 6.1,-89.17 10.28,-28.28 31.91,-53.47 60.52,-62.82 141.17,-46.16 295.66,-40.66 437.26,-85.54 20.36,-6.44 44.55,-26.83 32.05,-44.13 -6.74,-9.33 -22.57,-12.83 -22.86,-24.32 -0.28,-10.41 12.58,-15.16 22.73,-17.48zm-298.87 488.53l0 0c42.58,30.92 78.28,70.51 104.7,116.05 13.35,23.01 22.91,48.33 30.02,73.93 3.65,13.15 6.58,26.49 8.71,39.98 2.12,13.48 6.78,29.46 -0.7,41.75 -7.04,11.55 -21.11,9.59 -28.51,0 -7.61,-9.89 -5.46,-26.87 -6.89,-38.93 -1.42,-11.98 -3.69,-23.87 -6.43,-35.6 -5.44,-23.26 -13.54,-45.73 -22.31,-67.93 -18.37,-46.58 -47.07,-88.78 -82.86,-123.69 -2.83,-2.75 0.98,-7.94 4.27,-5.56zm-398.42 -100.75l0 0c-14.72,7.24 -29.56,14.77 -43.43,23.55 -6.53,4.14 -12.78,8.64 -18.96,13.27 -6.35,4.78 -14.12,7.23 -21.26,10.67 -1.71,0.82 -4.19,-0.56 -3.46,-2.67 2.62,-7.7 5.04,-16.12 10.25,-22.47 5.77,-7.02 12.36,-13.54 18.99,-19.74 13.03,-12.17 26.95,-22.88 42.76,-31.18 16.24,-8.52 33.4,-15.58 50.97,-20.82 8.34,-2.48 16.79,-4.57 25.34,-6.19 10.97,-2.1 21.42,-4.72 31.88,0.17 12.22,5.69 8.74,21.55 0,28.04 -7.16,5.32 -18.06,4.51 -26.7,6.02 -7.67,1.35 -15.28,3.05 -22.81,5.07 -15.01,4.05 -29.62,9.43 -43.57,16.28zm182.52 133.95l0 0c16,-17.46 41.23,8.27 25.85,25.83 -76.16,86.92 -132.03,189.59 -178.46,294.84 -2.92,6.62 -11.76,1.44 -10.77,-4.55 20.01,-119.95 82.01,-227.18 163.38,-316.12z"/>
     <path class="fil1" d="M12802.14 12978.98c-35.93,-155.06 -141.89,-292.46 -282.72,-366.61 -8.31,-4.38 -17.24,-9.01 -21.7,-17.28 -9.48,-17.57 6.15,-37.38 13.13,-56.07 11.69,-31.35 -5.22,-67.3 -33.14,-85.79 21.44,-37.36 34.27,-77.49 27.98,-119.83 -10.43,-70.37 -70.22,-121.62 -127,-164.47 -252.13,-190.3 -529.3,-351.38 -830.17,-447.54 -300.88,-96.17 -626.85,-125.38 -934.74,-54.86 -43.85,10.05 -149.18,27.71 -178.16,66.63 -49.11,65.95 26.83,96.81 88.19,95.87 275.85,-4.22 545.78,93.59 782.12,235.92 236.35,142.33 443.14,328.08 645.67,515.43 58.72,54.31 124.25,111.97 204.13,116.07 59.2,3.03 112.03,-23.91 159.33,-61.49 1.8,11.36 4.38,22.17 8.67,31.23 8.31,17.54 30.99,29.74 47.73,19.93 11.39,-6.67 16.39,-20.89 27.18,-28.49 18.48,-13.03 43.78,-1.64 62.89,10.45 68.38,43.25 132.59,95.89 176.3,163.99 43.7,68.09 65.03,153.37 44.37,231.59 -2.41,9.12 -5.26,19.29 -0.72,27.55 2.51,4.58 6.93,7.77 11.47,10.34 36.67,20.73 89.33,3.99 107.29,-34.1 12.83,-27.21 8.68,-59.18 1.9,-88.47zm-1003.18 -685.73l0 0c-42.79,-5.24 -73.45,-46.46 -106.41,-72.25 -47.15,-36.88 -95.73,-71.97 -145.81,-104.75 -94.29,-61.68 -193.75,-115.75 -296.83,-161.23 -219.21,-96.69 -455.87,-155.39 -692.91,-187 -1.46,-0.2 -1.57,-2.34 0,-2.37 237.04,-2.87 467.54,48.65 685.25,141.96 113.09,48.47 221.72,106.8 324.13,175.01 46.8,31.18 92.44,64.27 136.27,99.49 34.37,27.63 91.35,59.37 101.43,104.43 0.67,2.99 -1.49,7.15 -5.12,6.71zm260.76 266.64l0 0c-5.52,-1.33 -11.05,-2.67 -15.44,-6.47 -3.95,-3.42 -7.52,-7.44 -11.24,-11.14l-22.46 -22.26c-14.6,-14.47 -29.14,-28.83 -42.93,-44.07l-42.49 -46.97c-7.15,-7.9 -14.94,-15.55 -21.07,-24.26 -5.92,-8.41 -11.35,-17.21 -17,-25.78 -5.3,-8.02 5.59,-19.76 13.7,-13.71 8.7,6.47 17.54,12.81 26.09,19.47 8.31,6.49 15.4,14.73 22.8,22.23 14.39,14.61 28.81,29.19 43.2,43.79 14.86,15.05 28.76,30.86 42.77,46.7 7,7.91 14,15.83 21,23.74 3.51,3.96 7.5,7.77 10.54,12.1 3.03,4.33 3.92,9.18 4.86,14.31 1.37,7.52 -4.48,14.22 -12.33,12.32z"/>
     <path class="fil1" d="M13282.4 15625.52c-2.14,-7.93 -5.78,-15.74 -9.34,-23.04 -1.48,-3.04 -2.78,-6.19 -4.41,-9.15 -5.64,-10.27 -13.25,-20.12 -21.98,-27.94 -8.45,-7.59 -18.36,-15.24 -28.67,-20.49 -16.2,-8.25 -29.23,-11.75 -47.33,-13.07 -32.84,-2.42 -66.11,17.58 -80.18,47.29 -3.03,6.4 -5.11,12.54 -7.02,18.76 -3.3,2.55 -6.61,5.1 -9.92,7.65 -7.24,6.73 -12.36,14.7 -15.35,23.89 -3.37,5.81 -5.05,12.05 -5.08,18.75 -2.21,9.86 -1.77,19.73 1.33,29.61 0.87,4.73 2.65,7.88 4.73,12.81 1.78,4.21 3.28,8.5 5.63,12.41 4.71,7.79 10.49,15.05 16.67,21.71 5.93,6.41 13.54,11.43 20.47,16.58 2.61,1.94 5.32,3.68 8.24,5.13 7.97,3.93 16.11,8.08 24.77,10.09 9.19,2.13 18.71,3.15 28.03,4.02 11.93,1.11 24.69,-1.21 36.2,-3.38 2.92,-0.55 5.78,-1.32 8.59,-2.32 8.17,-2.89 16.5,-6.21 24.18,-10.32 7.53,-4.02 14.14,-9.89 20.74,-15.17 4.76,-3.82 7.9,-7.94 11.73,-12.9 19.79,-25.62 26.45,-59.53 17.97,-90.92z"/>
     <path class="fil1" d="M12965.62 14818.05c-2.17,-7.76 -6.1,-14.5 -11.79,-20.22 -3.09,-2.39 -6.19,-4.79 -9.26,-7.17 -7.16,-4.15 -14.87,-6.23 -23.16,-6.26 -6.3,-0.24 -12.18,1.09 -17.64,3.95 -5.69,1.84 -10.61,5.01 -14.76,9.48 -4.48,4.15 -7.63,9.07 -9.48,14.74 -2.86,5.48 -4.19,11.36 -3.95,17.67 0.54,4.06 1.1,8.12 1.64,12.18 2.18,7.77 6.1,14.52 11.79,20.23 3.09,2.38 6.19,4.78 9.28,7.17 7.14,4.15 14.86,6.23 23.12,6.26 6.32,0.23 12.21,-1.08 17.67,-3.95 5.69,-1.85 10.6,-5 14.75,-9.48 4.48,-4.15 7.63,-9.06 9.48,-14.75 2.87,-5.46 4.19,-11.35 3.95,-17.66 -0.54,-4.07 -1.1,-8.12 -1.64,-12.19z"/>
     <path class="fil1" d="M13473.94 14253.15c-4.15,-14.78 -11.62,-27.61 -22.43,-38.49 -5.89,-4.55 -11.77,-9.09 -17.66,-13.64 -13.6,-7.88 -28.27,-11.86 -44.02,-11.9 -12.01,-0.46 -23.21,2.05 -33.6,7.51 -10.82,3.5 -20.17,9.52 -28.07,18.03 -8.51,7.9 -14.51,17.26 -18.04,28.07 -5.46,10.39 -7.96,21.6 -7.51,33.6 1.04,7.74 2.08,15.47 3.11,23.2 4.15,14.76 11.63,27.59 22.44,38.49l17.65 13.64c13.6,7.88 28.28,11.84 44.02,11.9 12.02,0.44 23.22,-2.05 33.61,-7.51 10.81,-3.52 20.16,-9.54 28.07,-18.03 8.5,-7.9 14.51,-17.27 18.04,-28.07 5.46,-10.41 7.95,-21.6 7.51,-33.62 -1.04,-7.73 -2.08,-15.45 -3.12,-23.18z"/>
     <path class="fil1" d="M9639.81 17262.23c-2.69,-9.58 -7.54,-17.92 -14.55,-24.98 -3.82,-2.94 -7.63,-5.89 -11.45,-8.84 -8.82,-5.12 -18.35,-7.7 -28.55,-7.72 -7.8,-0.3 -15.07,1.32 -21.81,4.86 -7.02,2.29 -13.08,6.18 -18.21,11.7 -5.52,5.13 -9.41,11.19 -11.7,18.2 -3.54,6.76 -5.16,14.02 -4.86,21.82 0.67,5 1.35,10.02 2.01,15.04 2.69,9.58 7.54,17.9 14.55,24.96 3.82,2.95 7.64,5.9 11.46,8.85 8.81,5.12 18.34,7.68 28.56,7.71 7.78,0.3 15.05,-1.32 21.79,-4.86 7.02,-2.29 13.09,-6.19 18.21,-11.7 5.52,-5.12 9.41,-11.19 11.69,-18.21 3.55,-6.74 5.17,-14.01 4.87,-21.79 -0.67,-5.02 -1.34,-10.04 -2.01,-15.04z"/>
     <path class="fil1" d="M7885.08 14955.74c-2.25,-9.45 -6.58,-17.69 -13,-24.7 -5.12,-7.9 -11.92,-14.14 -20.37,-18.71l-17.35 -7.31c-9.66,-3.04 -19.32,-3.46 -28.97,-1.3 -4.94,0.22 -9.71,1.13 -14.31,2.63 -4.96,-0.2 -9.92,0.15 -14.87,1.71 -13.76,4.46 -27.01,12.97 -33.96,26.11 -7.11,13.46 -10.02,28.84 -5.73,43.8 0.82,2.86 1.64,5.73 2.47,8.58 0,0.03 -0.01,0.06 0,0.08 0.16,1.4 0.33,2.8 0.5,4.2 0.74,6.2 1.57,12.38 2.47,18.56 2.19,5.68 4.57,11.29 7.15,16.8 3.37,4.35 6.73,8.7 10.09,13.06 5.85,6.29 12.78,10.74 20.76,13.33 5.05,2.92 10.46,4.39 16.3,4.41 8.56,1.92 17.14,1.54 25.73,-1.14 5.13,-2.19 10.26,-4.35 15.39,-6.52 4.37,-3.36 8.71,-6.71 13.08,-10.08 0.38,-0.38 0.45,-0.95 0.85,-1.34 0.11,-0.07 0.27,-0.07 0.4,-0.15 4.89,-3.78 9.79,-7.57 14.7,-11.35 7.08,-6.59 12.09,-14.37 15.01,-23.38 4.55,-8.65 6.63,-17.98 6.26,-27.99 -0.87,-6.42 -1.73,-12.87 -2.6,-19.3z"/>
     <path class="fil1" d="M8727.02 14782.68c-52.54,0 -52.63,81.67 0,81.67 52.56,0 52.65,-81.67 0,-81.67z"/>
     <path class="fil1" d="M9824.75 11831.65c-4.26,-15.18 -11.93,-28.35 -23.03,-39.53l-18.14 -14c-13.97,-8.11 -29.04,-12.19 -45.2,-12.23 -12.35,-0.47 -23.85,2.1 -34.52,7.71 -11.11,3.61 -20.72,9.78 -28.83,18.52 -8.74,8.11 -14.92,17.72 -18.52,28.83 -5.61,10.67 -8.19,22.18 -7.71,34.51 1.05,7.94 2.12,15.88 3.19,23.82 4.26,15.17 11.93,28.36 23.04,39.52 6.04,4.67 12.08,9.35 18.13,14.01 13.97,8.11 29.04,12.19 45.22,12.23 12.33,0.47 23.83,-2.11 34.5,-7.71 11.12,-3.62 20.72,-9.79 28.84,-18.53 8.73,-8.11 14.91,-17.72 18.51,-28.83 5.62,-10.67 8.19,-22.18 7.72,-34.51 -1.06,-7.93 -2.13,-15.87 -3.2,-23.81z"/>
     <path class="fil1" d="M10383.03 12172.99c-3.08,-10.99 -8.64,-20.51 -16.68,-28.61l-13.11 -10.14c-10.11,-5.85 -21.01,-8.81 -32.72,-8.85 -8.92,-0.33 -17.25,1.53 -24.97,5.59 -8.04,2.61 -15,7.08 -20.87,13.4 -6.32,5.87 -10.8,12.83 -13.4,20.87 -4.07,7.73 -5.92,16.04 -5.58,24.98 0.77,5.73 1.54,11.49 2.31,17.23 3.08,10.98 8.64,20.52 16.67,28.6 4.37,3.38 8.75,6.76 13.13,10.13 10.1,5.88 21.01,8.83 32.71,8.86 8.93,0.34 17.25,-1.53 24.98,-5.58 8.04,-2.62 15,-7.08 20.85,-13.41 6.33,-5.87 10.81,-12.82 13.42,-20.86 4.06,-7.72 5.92,-16.05 5.59,-24.97 -0.79,-5.75 -1.56,-11.49 -2.33,-17.24z"/>
    </g>
   </g>
  </g>
 </g>
</svg>
